<svg width="16" height="18" viewBox="0 0 16 18" fill="none" xmlns="http://www.w3.org/2000/svg">
<path d="M14.1364 3.68181L13.6291 11.8841C13.4998 13.9794 13.4352 15.0275 12.9091 15.7811C12.6494 16.1535 12.315 16.4678 11.9273 16.704C11.1443 17.1818 10.0945 17.1818 7.99508 17.1818C5.89235 17.1818 4.84099 17.1818 4.05635 16.7032C3.66844 16.4665 3.33407 16.1516 3.07453 15.7786C2.54926 15.0243 2.48544 13.9745 2.35944 11.8759L1.86363 3.68181M0.636353 3.68181H15.3636M11.3185 3.68181L10.7597 2.52981C10.3891 1.76399 10.2034 1.3819 9.88344 1.14299C9.81238 1.09007 9.73713 1.04301 9.65844 1.00227C9.30417 0.818176 8.87872 0.818176 8.02863 0.818176C7.15644 0.818176 6.72035 0.818176 6.35953 1.00963C6.27977 1.05235 6.2037 1.10161 6.13208 1.1569C5.8089 1.40481 5.62808 1.80163 5.26644 2.59445L4.77063 3.68181M5.95453 12.6818V7.77272M10.0454 12.6818V7.77272" stroke="#999999" stroke-width="1.22727" stroke-linecap="round" stroke-linejoin="round"/>
</svg>
