<svg width="20" height="22" viewBox="0 0 20 22" fill="none" xmlns="http://www.w3.org/2000/svg">
<path d="M4.963 3.762L3.963 4.543C2.447 5.727 1.688 6.319 1.282 7.153C0.875 7.988 0.875 8.952 0.875 10.88V12.972C0.875 16.756 0.875 18.648 2.047 19.824C3.219 21 5.104 21 8.875 21H10.875C14.646 21 16.532 21 17.703 19.824C18.874 18.648 18.875 16.756 18.875 12.971V10.881C18.875 8.952 18.875 7.988 18.468 7.153C18.061 6.319 17.303 5.727 15.787 4.543L14.787 3.763C12.427 1.92 11.247 1 9.875 1C8.503 1 7.323 1.92 4.963 3.762Z" stroke="black" stroke-width="1.5" stroke-linecap="round" stroke-linejoin="round"/>
</svg>
